- 
http://www.Speed.Cd      fast  and The Hottest Private Tracker on the net

   signup is open now

Please Seed back to make the speed Faster!!!

------------------nfo--------------------------
-[align=center][IMG]http://i.imgur.com/42BC0.jpg[/IMG]

[IMG]http://i796.photobucket.com/albums/yy246/jungledave7080/twisted/PresInfoRaw-1.png[/IMG]

Complete name : Attack The Block [2011] Dvdrip - PRESTiGE.avi 
Format : AVI 
Format/Info : Audio Video Interleave 
File size : 701 MiB 
Duration : 1h 24mn 
Overall bit rate : 1 158 Kbps 
IMDB: Attack.The.Block.PROPER.PAL.DVDR-iGNiTiON
Encoder:[color=#6600CC][b][i]Twisted[/i][/b][/color]
Source: http://www.imdb.com/title/tt1478964/

[IMG]http://i796.photobucket.com/albums/yy246/jungledave7080/twisted/PresVidRaw-1.png[/IMG]

ID : 0 
Format : MPEG-4 Visual 
Format profile : Advanced Simple@L5 
Format settings, BVOP : 2 
Format settings, QPel : No 
Format settings, GMC : No warppoints 
Format settings, Matrix : Default (H.263) 
Muxing mode : Packed bitstream 
Codec ID : XVID 
Codec ID/Hint : XviD 
Duration : 1h 24mn 
Bit rate : 1 021 Kbps 
Width : 720 pixels 
Height : 288 pixels 
Display aspect ratio : 2.500 
Frame rate : 25.000 fps 
Color space : YUV 
Chroma subsampling : 4:2:0 
Bit depth : 8 bits 
Scan type : Progressive 
Compression mode : Lossy 
Bits/(Pixel*Frame) : 0.197 
Stream size : 617 MiB (88%) 
Writing library : XviD 63 


[IMG]http://i796.photobucket.com/albums/yy246/jungledave7080/twisted/PresAudRaw-1.png[/IMG]

ID : 1 
Format : MPEG Audio 
Format version : Version 1 
Format profile : Layer 3 
Mode : Joint stereo 
Codec ID : 55 
Codec ID/Hint : MP3 
Duration : 1h 24mn 
Bit rate mode : Constant 
Bit rate : 128 Kbps 
Channel(s) : 2 channels 
Sampling rate : 44.1 KHz 
Compression mode : Lossy 
Delay relative to video : 26ms 
Stream size : 77.4 MiB (11%) 
Alignment : Split accross interleaves 
Interleave, duration : 40 ms (1.00 video frame) 
Interleave, preload duration : 500 ms 


[IMG]http://i796.photobucket.com/albums/yy246/jungledave7080/twisted/PresPlotRaw-1.png[/IMG]

A teen gang in South London defend their block from an alien invasion. 


[IMG]http://i796.photobucket.com/albums/yy246/jungledave7080/twisted/PresScrnRaw-1.png[/IMG]

[IMG]http://i.imgur.com/KCPEH.png[/IMG]
[IMG]http://i.imgur.com/4fnFq.png[/IMG]
[IMG]http://i.imgur.com/JbScg.png[/IMG]
[IMG]http://i.imgur.com/FeyQj.png[/IMG]


[IMG]http://i796.photobucket.com/albums/yy246/jungledave7080/twisted/PresNoteRaw-1.png[/IMG]

[color=#FF0000][b]WE DONT RELEASE EVERYTHING TO OTHERS SITES YOU WANT MORE OF OUR STUFF COME FIND US AT .......[/b][/color]
[color=#FF0000][b]WE ARE LOOKING FOR SUPPLIERS BLURAY CAM R5 PRE RETAIL DVD GOT SOMETHING WE MIGHT LIKE WHEN YOU FIND US TELL US.......[/b][/color]


Greets going out to

| Bigguy | DiLLoN | Thorn | Flawl3ss | Imagine | CTFX | BMB | akosipalos | HiTM4N | PA4U2C |


[img]http://i.imgur.com/YvsDx.png[/img][/align]